<svg width="24" height="24" viewBox="0 0 24 24" fill="none" xmlns="http://www.w3.org/2000/svg">
<path d="M5 20.5H17.5V13.5C17.5 12.9067 17.6759 12.3266 18.0056 11.8333C18.3352 11.3399 18.8038 10.9554 19.3519 10.7284C19.9001 10.5013 20.5033 10.4419 21.0853 10.5576C21.6672 10.6734 22.2018 10.9591 22.6213 11.3787C23.0409 11.7982 23.3266 12.3328 23.4424 12.9147C23.5581 13.4967 23.4987 14.0999 23.2716 14.6481C23.0446 15.1962 22.6601 15.6648 22.1667 15.9944C21.6734 16.3241 21.0933 16.5 20.5 16.5H20M0 23.5H24M15 10.5H2.5V10.75L2.563 10.85C4.48201 13.8876 5.5004 17.407 5.5 21M5.5 0V1C5.5 2.72391 6.18482 4.37721 7.40381 5.59619C8.62279 6.81518 10.2761 7.5 12 7.5M14.5 8V4.5H12C11.0717 4.5 10.1815 4.13125 9.52513 3.47487C8.86875 2.8185 8.5 1.92826 8.5 1V0" stroke="black"/>
</svg>
