<svg width="34" height="34" viewBox="0 0 34 34" fill="none" xmlns="http://www.w3.org/2000/svg">
<g filter="url(#filter0_d_32_106)">
<path fill-rule="evenodd" clip-rule="evenodd" d="M2 7.71429C2 5.66833 2.88895 3.70617 4.47129 2.25946C6.05362 0.812753 8.19974 0 10.4375 0H29.1875C29.9334 0 30.6488 0.270918 31.1762 0.753154C31.7037 1.23539 32 1.88944 32 2.57143V28.2857C32 28.7404 31.8025 29.1764 31.4508 29.4979C31.0992 29.8194 30.6223 30 30.125 30H8.5625C6.98416 30.0004 5.45854 29.4806 4.26529 28.5361C3.07204 27.5915 2.2911 26.2854 2.06562 24.8571H2V7.71429ZM29.1875 20.5714H8.5625C7.56794 20.5714 6.61411 20.9327 5.91085 21.5756C5.20759 22.2186 4.8125 23.0907 4.8125 24C4.8125 24.9093 5.20759 25.7814 5.91085 26.4244C6.61411 27.0673 7.56794 27.4286 8.5625 27.4286H29.1875V20.5714ZM9.96875 7.71429C9.96875 7.37329 10.1169 7.04627 10.3806 6.80515C10.6444 6.56403 11.002 6.42857 11.375 6.42857H24.5C24.873 6.42857 25.2306 6.56403 25.4944 6.80515C25.7581 7.04627 25.9062 7.37329 25.9062 7.71429C25.9062 8.05528 25.7581 8.3823 25.4944 8.62342C25.2306 8.86454 24.873 9 24.5 9H11.375C11.002 9 10.6444 8.86454 10.3806 8.62342C10.1169 8.3823 9.96875 8.05528 9.96875 7.71429ZM11.375 11.5714C11.002 11.5714 10.6444 11.7069 10.3806 11.948C10.1169 12.1891 9.96875 12.5162 9.96875 12.8571C9.96875 13.1981 10.1169 13.5252 10.3806 13.7663C10.6444 14.0074 11.002 14.1429 11.375 14.1429H20.75C21.123 14.1429 21.4806 14.0074 21.7444 13.7663C22.0081 13.5252 22.1562 13.1981 22.1562 12.8571C22.1562 12.5162 22.0081 12.1891 21.7444 11.948C21.4806 11.7069 21.123 11.5714 20.75 11.5714H11.375Z" fill="white"/>
</g>
<defs>
<filter id="filter0_d_32_106" x="0" y="0" width="34" height="34" filterUnits="userSpaceOnUse" color-interpolation-filters="sRGB">
<feFlood flood-opacity="0" result="BackgroundImageFix"/>
<feColorMatrix in="SourceAlpha" type="matrix" values="0 0 0 0 0 0 0 0 0 0 0 0 0 0 0 0 0 0 127 0" result="hardAlpha"/>
<feOffset dy="2"/>
<feGaussianBlur stdDeviation="1"/>
<feComposite in2="hardAlpha" operator="out"/>
<feColorMatrix type="matrix" values="0 0 0 0 0 0 0 0 0 0 0 0 0 0 0 0 0 0 0.8 0"/>
<feBlend mode="normal" in2="BackgroundImageFix" result="effect1_dropShadow_32_106"/>
<feBlend mode="normal" in="SourceGraphic" in2="effect1_dropShadow_32_106" result="shape"/>
</filter>
</defs>
</svg>
