<svg width="18" height="18" viewBox="0 0 18 18" fill="none" xmlns="http://www.w3.org/2000/svg">
<g clip-path="url(#clip0_26_76)">
<path d="M13.2 4.2001H14.4M5.4 0.600098H12.6C13.873 0.600098 15.0939 1.10581 15.9941 2.00599C16.8943 2.90616 17.4 4.12706 17.4 5.4001V12.6001C17.4 13.8731 16.8943 15.094 15.9941 15.9942C15.0939 16.8944 13.873 17.4001 12.6 17.4001H5.4C4.12696 17.4001 2.90606 16.8944 2.00589 15.9942C1.10571 15.094 0.599998 13.8731 0.599998 12.6001V5.4001C0.599998 4.12706 1.10571 2.90616 2.00589 2.00599C2.90606 1.10581 4.12696 0.600098 5.4 0.600098ZM9 12.6001C8.04522 12.6001 7.12954 12.2208 6.45441 11.5457C5.77928 10.8706 5.4 9.95488 5.4 9.0001C5.4 8.04532 5.77928 7.12964 6.45441 6.45451C7.12954 5.77938 8.04522 5.4001 9 5.4001C9.95478 5.4001 10.8705 5.77938 11.5456 6.45451C12.2207 7.12964 12.6 8.04532 12.6 9.0001C12.6 9.95488 12.2207 10.8706 11.5456 11.5457C10.8705 12.2208 9.95478 12.6001 9 12.6001Z" stroke="black"/>
</g>
<defs>
<clipPath id="clip0_26_76">
<rect width="18" height="18" fill="white"/>
</clipPath>
</defs>
</svg>
