<svg width="18" height="18" viewBox="0 0 18 18" fill="none" xmlns="http://www.w3.org/2000/svg">
<g clip-path="url(#clip0_26_78)">
<path d="M9.00001 17.4001C7.8969 17.4001 6.8046 17.1828 5.78547 16.7607C4.76633 16.3385 3.84032 15.7198 3.06031 14.9398C2.2803 14.1598 1.66156 13.2338 1.23942 12.2146C0.817279 11.1955 0.600006 10.1032 0.600006 9.0001C0.600006 7.89699 0.817279 6.80469 1.23942 5.78556C1.66156 4.76642 2.2803 3.84041 3.06031 3.0604C3.84032 2.28039 4.76633 1.66165 5.78547 1.23951C6.8046 0.81737 7.8969 0.600098 9.00001 0.600098C11.2278 0.600098 13.3644 1.4851 14.9397 3.0604C16.515 4.63571 17.4 6.77228 17.4 9.0001C17.4 11.2279 16.515 13.3645 14.9397 14.9398C13.3644 16.5151 11.2278 17.4001 9.00001 17.4001ZM9.00001 17.4001V7.8001C9.00001 7.16358 9.25286 6.55313 9.70295 6.10304C10.153 5.65295 10.7635 5.4001 11.4 5.4001H12M6.00001 10.2001H12" stroke="black"/>
</g>
<defs>
<clipPath id="clip0_26_78">
<rect width="18" height="18" fill="white"/>
</clipPath>
</defs>
</svg>
